<svg width="48" height="48" viewBox="0 0 48 48" fill="none" xmlns="http://www.w3.org/2000/svg">
<rect width="48" height="48" rx="24" fill="#141B22"/>
<path d="M24.3495 17.6257C23.0884 17.6255 21.8555 17.9993 20.8068 18.6997C19.7581 19.4002 18.9407 20.3959 18.4579 21.561C17.9751 22.7261 17.8487 24.0082 18.0945 25.2451C18.3404 26.482 18.9476 27.6183 19.8393 28.5101C20.7309 29.402 21.867 30.0094 23.1039 30.2555C24.3408 30.5016 25.6229 30.3754 26.7881 29.8929C27.9532 29.4103 28.9492 28.5931 29.6498 27.5445C30.3505 26.496 30.7245 25.2632 30.7245 24.002C30.7228 22.3117 30.0506 20.6911 28.8555 19.4957C27.6604 18.3003 26.0399 17.6278 24.3495 17.6257Z" fill="#21E786"/>
<path d="M34.4848 22.877H32.986C32.6876 22.877 32.4014 22.9955 32.1904 23.2065C31.9794 23.4175 31.8608 23.7037 31.8608 24.0021C31.8608 24.3006 31.9794 24.5868 32.1904 24.7978C32.4014 25.0088 32.6876 25.1273 32.986 25.1273H34.4848C34.7832 25.1273 35.0694 25.0088 35.2804 24.7978C35.4914 24.5868 35.61 24.3006 35.61 24.0021C35.61 23.7037 35.4914 23.4175 35.2804 23.2065C35.0694 22.9955 34.7832 22.877 34.4848 22.877Z" fill="#21E786"/>
<path d="M24.3495 31.4998C24.0513 31.5002 23.7655 31.6189 23.5547 31.8299C23.3439 32.0408 23.2254 32.3267 23.2251 32.6249V34.1251C23.2251 34.4233 23.3436 34.7093 23.5544 34.9202C23.7653 35.131 24.0513 35.2495 24.3495 35.2495C24.6477 35.2495 24.9336 35.131 25.1445 34.9202C25.3554 34.7093 25.4738 34.4233 25.4738 34.1251V32.6249C25.4736 32.3267 25.3551 32.0408 25.1443 31.8299C24.9336 31.6189 24.6477 31.5002 24.3495 31.4998Z" fill="#21E786"/>
<path d="M16.8566 24.0021C16.8563 23.7039 16.7378 23.418 16.527 23.2071C16.3162 22.9961 16.0303 22.8774 15.7321 22.877H14.2336C13.9352 22.877 13.649 22.9955 13.438 23.2065C13.2269 23.4175 13.1084 23.7037 13.1084 24.0021C13.1084 24.3006 13.2269 24.5868 13.438 24.7978C13.649 25.0088 13.9352 25.1273 14.2336 25.1273H15.7321C16.0303 25.1269 16.3162 25.0082 16.527 24.7972C16.7378 24.5863 16.8563 24.3003 16.8566 24.0021Z" fill="#21E786"/>
<path d="M24.3499 16.5005C24.6481 16.5 24.9339 16.3813 25.1447 16.1704C25.3555 15.9594 25.474 15.6735 25.4743 15.3753V13.8751C25.4743 13.5769 25.3558 13.2909 25.145 13.08C24.9341 12.8692 24.6481 12.7507 24.3499 12.7507C24.0517 12.7507 23.7658 12.8692 23.5549 13.08C23.344 13.2909 23.2256 13.5769 23.2256 13.8751V15.3753C23.2258 15.6735 23.3443 15.9594 23.5551 16.1703C23.7658 16.3813 24.0517 16.5 24.3499 16.5005Z" fill="#21E786"/>
<path d="M31.2447 18.6971L32.3055 17.6363C32.4102 17.532 32.4934 17.408 32.5501 17.2715C32.6069 17.135 32.6362 16.9886 32.6364 16.8408C32.6365 16.693 32.6075 16.5465 32.551 16.4099C32.4945 16.2733 32.4116 16.1492 32.3071 16.0447C32.2025 15.9401 32.0784 15.8572 31.9418 15.8007C31.8052 15.7442 31.6587 15.7152 31.5109 15.7153C31.3631 15.7155 31.2167 15.7448 31.0802 15.8016C30.9437 15.8583 30.8197 15.9415 30.7154 16.0462L29.6546 17.107C29.5499 17.2113 29.4667 17.3353 29.41 17.4718C29.3532 17.6083 29.3239 17.7547 29.3237 17.9025C29.3236 18.0503 29.3526 18.1968 29.4091 18.3334C29.4656 18.47 29.5485 18.5941 29.6531 18.6987C29.7576 18.8032 29.8817 18.8861 30.0183 18.9426C30.1549 18.9991 30.3014 19.0281 30.4492 19.028C30.597 19.0278 30.7434 18.9985 30.8799 18.9417C31.0164 18.885 31.1404 18.8018 31.2447 18.6971Z" fill="#21E786"/>
<path d="M31.2445 29.3073C31.1402 29.2026 31.0162 29.1195 30.8797 29.0627C30.7432 29.006 30.5969 28.9767 30.4491 28.9766C30.3013 28.9764 30.1549 29.0055 30.0183 29.062C29.8817 29.1185 29.7576 29.2014 29.653 29.3059C29.5485 29.4104 29.4656 29.5345 29.4091 29.6711C29.3526 29.8077 29.3236 29.9541 29.3237 30.1019C29.3239 30.2497 29.3531 30.3961 29.4099 30.5326C29.4666 30.6691 29.5497 30.793 29.6544 30.8974L30.7152 31.9581C30.8196 32.0628 30.9435 32.146 31.08 32.2027C31.2165 32.2594 31.3629 32.2887 31.5107 32.2889C31.6585 32.289 31.8049 32.26 31.9415 32.2035C32.0781 32.1469 32.2022 32.0641 32.3067 31.9595C32.4112 31.855 32.4941 31.7309 32.5506 31.5943C32.6071 31.4577 32.6362 31.3113 32.636 31.1635C32.6359 31.0157 32.6066 30.8693 32.5499 30.7329C32.4931 30.5964 32.41 30.4724 32.3053 30.3681L31.2445 29.3073Z" fill="#21E786"/>
<path d="M17.4543 29.307L16.3935 30.3678C16.2888 30.4722 16.2056 30.5961 16.1488 30.7326C16.092 30.8691 16.0627 31.0155 16.0625 31.1634C16.0623 31.3112 16.0913 31.4577 16.1479 31.5943C16.2044 31.7309 16.2873 31.8551 16.3918 31.9596C16.4964 32.0642 16.6205 32.1471 16.7571 32.2036C16.8938 32.2601 17.0402 32.2891 17.1881 32.2889C17.3359 32.2888 17.4823 32.2595 17.6188 32.2026C17.7553 32.1458 17.8793 32.0627 17.9836 31.9579L19.0444 30.8971C19.1491 30.7928 19.2322 30.6688 19.289 30.5323C19.3457 30.3958 19.375 30.2495 19.3751 30.1017C19.3752 29.9538 19.3462 29.8075 19.2897 29.6709C19.2332 29.5343 19.1503 29.4102 19.0458 29.3056C18.9413 29.2011 18.8172 29.1182 18.6806 29.0617C18.544 29.0052 18.3976 28.9762 18.2498 28.9763C18.1019 28.9764 17.9556 29.0057 17.8191 29.0625C17.6826 29.1192 17.5587 29.2023 17.4543 29.307Z" fill="#21E786"/>
<path d="M17.4543 18.697C17.5587 18.8016 17.6827 18.8845 17.8191 18.9412C17.9556 18.9978 18.1019 19.027 18.2496 19.027C18.3973 19.0271 18.5436 18.998 18.6801 18.9415C18.8166 18.885 18.9406 18.8022 19.0451 18.6977C19.1496 18.5932 19.2324 18.4692 19.2889 18.3327C19.3454 18.1962 19.3745 18.0499 19.3744 17.9022C19.3744 17.7544 19.3452 17.6082 19.2886 17.4717C19.2319 17.3353 19.149 17.2113 19.0444 17.1069L17.9836 16.0461C17.8793 15.9413 17.7554 15.858 17.6188 15.8011C17.4823 15.7442 17.3359 15.7148 17.1879 15.7146C17.04 15.7144 16.8935 15.7434 16.7568 15.7999C16.6201 15.8564 16.4959 15.9393 16.3913 16.0439C16.2867 16.1485 16.2038 16.2727 16.1473 16.4094C16.0908 16.5461 16.0618 16.6926 16.062 16.8405C16.0622 16.9885 16.0916 17.1349 16.1485 17.2714C16.2054 17.408 16.2887 17.5319 16.3936 17.6362L17.4543 18.697Z" fill="#21E786"/>
</svg>
